<svg width="1280" height="520" viewBox="0 0 1280 520" fill="none" xmlns="http://www.w3.org/2000/svg" role="img" aria-labelledby="title">
  <title id="title">IELTS Writing Review Skills</title>
  <defs>
    <linearGradient id="bg" x1="0" y1="0" x2="1280" y2="520" gradientUnits="userSpaceOnUse">
      <stop offset="0" stop-color="#07111f"/>
      <stop offset="0.48" stop-color="#0b2440"/>
      <stop offset="1" stop-color="#102317"/>
    </linearGradient>
    <linearGradient id="arrow" x1="916" y1="384" x2="1068" y2="104" gradientUnits="userSpaceOnUse">
      <stop offset="0" stop-color="#62d2ff"/>
      <stop offset="0.52" stop-color="#8ef0b0"/>
      <stop offset="1" stop-color="#ffd166"/>
    </linearGradient>
    <filter id="shadow" x="-20%" y="-20%" width="140%" height="140%" color-interpolation-filters="sRGB">
      <feDropShadow dx="0" dy="22" stdDeviation="22" flood-color="#000000" flood-opacity="0.38"/>
    </filter>
    <pattern id="grid" width="48" height="48" patternUnits="userSpaceOnUse">
      <path d="M48 0H0V48" stroke="#ffffff" stroke-opacity="0.045" stroke-width="1"/>
    </pattern>
  </defs>

  <rect width="1280" height="520" rx="34" fill="url(#bg)"/>
  <rect width="1280" height="520" rx="34" fill="url(#grid)"/>

  <g filter="url(#shadow)">
    <rect x="86" y="74" width="1108" height="372" rx="26" fill="#08111f" fill-opacity="0.72" stroke="#ffffff" stroke-opacity="0.12"/>
  </g>

  <g transform="translate(126 142)">
    <rect x="0" y="0" width="148" height="34" rx="17" fill="#62d2ff" fill-opacity="0.14" stroke="#62d2ff" stroke-opacity="0.45"/>
    <text x="74" y="23" text-anchor="middle" font-family="Inter, ui-sans-serif, system-ui, -apple-system, BlinkMacSystemFont, Segoe UI, sans-serif" font-size="15" font-weight="700" fill="#a9ecff">AGENT SKILLS</text>
    <text x="0" y="112" font-family="Inter, ui-sans-serif, system-ui, -apple-system, BlinkMacSystemFont, Segoe UI, sans-serif" font-size="48" font-weight="800" fill="#f7fbff" letter-spacing="0">IELTS Writing Review Skills</text>
  </g>

  <g>
    <text x="1030" y="122" text-anchor="middle" font-family="Inter, ui-sans-serif, system-ui, -apple-system, BlinkMacSystemFont, Segoe UI, sans-serif" font-size="78" font-weight="900" fill="#f7fbff" letter-spacing="0">9.0</text>
    <path d="M1000 406H1060V238H1148L1030 154L912 238H1000V406Z" fill="#000000" fill-opacity="0.22" transform="translate(0 16)"/>
    <path d="M1000 406H1060V238H1148L1030 154L912 238H1000V406Z" fill="url(#arrow)"/>
    <path d="M1000 406H1060V238H1148L1030 154L912 238H1000V406Z" stroke="#ffffff" stroke-opacity="0.32" stroke-width="2"/>
  </g>
</svg>
